<svg width="1630" height="1788" xmlns="http://www.w3.org/2000/svg" xmlns:xlink="http://www.w3.org/1999/xlink" xml:space="preserve" overflow="hidden"><defs><filter id="fx0" x="-10%" y="-10%" width="120%" height="120%" filterUnits="userSpaceOnUse" primitiveUnits="userSpaceOnUse"><feComponentTransfer color-interpolation-filters="sRGB"><feFuncR type="discrete" tableValues="0 0"/><feFuncG type="discrete" tableValues="0 0"/><feFuncB type="discrete" tableValues="0 0"/><feFuncA type="linear" slope="0.4" intercept="0"/></feComponentTransfer><feGaussianBlur stdDeviation="6.11111 6.11111"/></filter><clipPath id="clip1"><rect x="1375" y="433" width="1630" height="1788"/></clipPath><clipPath id="clip2"><rect x="-3" y="-3" width="1638" height="1638"/></clipPath><clipPath id="clip3"><rect x="0" y="0" width="1632" height="1631"/></clipPath><linearGradient x1="2995.5" y1="441.5" x2="1404.5" y2="2033.5" gradientUnits="userSpaceOnUse" spreadMethod="reflect" id="fill4"><stop offset="0" stop-color="#18C7E2"/><stop offset="0.00555556" stop-color="#18C6E1"/><stop offset="0.0111111" stop-color="#19C6E1"/><stop offset="0.0166667" stop-color="#19C6E1"/><stop offset="0.0222222" stop-color="#1AC6E1"/><stop offset="0.0277778" stop-color="#1BC6E1"/><stop offset="0.0333333" stop-color="#1BC6E1"/><stop offset="0.0388889" stop-color="#1CC6E1"/><stop offset="0.0444444" stop-color="#1CC6E1"/><stop offset="0.05" stop-color="#1DC6E1"/><stop offset="0.0555556" stop-color="#1DC6E1"/><stop offset="0.0611111" stop-color="#1EC6E1"/><stop offset="0.0666667" stop-color="#1FC5E1"/><stop offset="0.0722222" stop-color="#1FC5E1"/><stop offset="0.0777778" stop-color="#20C5E1"/><stop offset="0.0833333" stop-color="#20C5E1"/><stop offset="0.0888889" stop-color="#21C5E1"/><stop offset="0.0944444" stop-color="#22C4E1"/><stop offset="0.1" stop-color="#22C4E1"/><stop offset="0.105556" stop-color="#23C4E1"/><stop offset="0.111111" stop-color="#23C4E1"/><stop offset="0.116667" stop-color="#24C3E1"/><stop offset="0.122222" stop-color="#24C3E1"/><stop offset="0.127778" stop-color="#25C3E1"/><stop offset="0.133333" stop-color="#25C2E1"/><stop offset="0.138889" stop-color="#26C2E1"/><stop offset="0.144444" stop-color="#26C2E1"/><stop offset="0.15" stop-color="#27C1E1"/><stop offset="0.155556" stop-color="#28C1E1"/><stop offset="0.161111" stop-color="#28C1E1"/><stop offset="0.166667" stop-color="#29C0E1"/><stop offset="0.172222" stop-color="#29C0E1"/><stop offset="0.177778" stop-color="#2ABFE0"/><stop offset="0.183333" stop-color="#2ABFE0"/><stop offset="0.188889" stop-color="#2BBFE0"/><stop offset="0.194444" stop-color="#2BBEE0"/><stop offset="0.2" stop-color="#2CBEE0"/><stop offset="0.205556" stop-color="#2CBDE0"/><stop offset="0.211111" stop-color="#2DBDE0"/><stop offset="0.216667" stop-color="#2DBCE0"/><stop offset="0.222222" stop-color="#2EBCE0"/><stop offset="0.227778" stop-color="#2EBBE0"/><stop offset="0.233333" stop-color="#2FBBE0"/><stop offset="0.238889" stop-color="#2FBAE0"/><stop offset="0.244444" stop-color="#30BAE0"/><stop offset="0.25" stop-color="#30B9E0"/><stop offset="0.255556" stop-color="#31B8DF"/><stop offset="0.261111" stop-color="#31B8DF"/><stop offset="0.266667" stop-color="#32B7DF"/><stop offset="0.272222" stop-color="#32B7DF"/><stop offset="0.277778" stop-color="#32B6DF"/><stop offset="0.283333" stop-color="#33B5DF"/><stop offset="0.288889" stop-color="#33B5DF"/><stop offset="0.294444" stop-color="#34B4DF"/><stop offset="0.3" stop-color="#34B4DF"/><stop offset="0.305556" stop-color="#35B3DF"/><stop offset="0.311111" stop-color="#35B2DF"/><stop offset="0.316667" stop-color="#36B2DE"/><stop offset="0.322222" stop-color="#36B1DE"/><stop offset="0.327778" stop-color="#36B0DE"/><stop offset="0.333333" stop-color="#37AFDE"/><stop offset="0.338889" stop-color="#37AFDE"/><stop offset="0.344444" stop-color="#38AEDE"/><stop offset="0.35" stop-color="#38ADDE"/><stop offset="0.355556" stop-color="#39ACDE"/><stop offset="0.361111" stop-color="#39ACDE"/><stop offset="0.366667" stop-color="#39ABDE"/><stop offset="0.372222" stop-color="#3AAADD"/><stop offset="0.377778" stop-color="#3AA9DD"/><stop offset="0.383333" stop-color="#3BA9DD"/><stop offset="0.388889" stop-color="#3BA8DD"/><stop offset="0.394444" stop-color="#3BA7DD"/><stop offset="0.4" stop-color="#3CA6DD"/><stop offset="0.405556" stop-color="#3CA5DD"/><stop offset="0.411111" stop-color="#3DA4DD"/><stop offset="0.416667" stop-color="#3DA3DC"/><stop offset="0.422222" stop-color="#3DA3DC"/><stop offset="0.427778" stop-color="#3EA2DC"/><stop offset="0.433333" stop-color="#3EA1DC"/><stop offset="0.438889" stop-color="#3FA0DC"/><stop offset="0.444444" stop-color="#3F9FDC"/><stop offset="0.45" stop-color="#3F9EDC"/><stop offset="0.455556" stop-color="#409DDC"/><stop offset="0.461111" stop-color="#409CDB"/><stop offset="0.466667" stop-color="#409BDB"/><stop offset="0.472222" stop-color="#419ADB"/><stop offset="0.477778" stop-color="#4199DB"/><stop offset="0.483333" stop-color="#4198DB"/><stop offset="0.488889" stop-color="#4297DB"/><stop offset="0.494444" stop-color="#4296DB"/><stop offset="0.5" stop-color="#4295DA"/><stop offset="0.505556" stop-color="#4394DA"/><stop offset="0.511111" stop-color="#4393DA"/><stop offset="0.516667" stop-color="#4392DA"/><stop offset="0.522222" stop-color="#4491DA"/><stop offset="0.527778" stop-color="#4490DA"/><stop offset="0.533333" stop-color="#448FD9"/><stop offset="0.538889" stop-color="#458ED9"/><stop offset="0.544444" stop-color="#458DD9"/><stop offset="0.55" stop-color="#458BD9"/><stop offset="0.555556" stop-color="#468AD9"/><stop offset="0.561111" stop-color="#4689D9"/><stop offset="0.566667" stop-color="#4688D9"/><stop offset="0.572222" stop-color="#4687D8"/><stop offset="0.577778" stop-color="#4786D8"/><stop offset="0.583333" stop-color="#4785D8"/><stop offset="0.588889" stop-color="#4783D8"/><stop offset="0.594444" stop-color="#4882D8"/><stop offset="0.6" stop-color="#4881D8"/><stop offset="0.605556" stop-color="#4880D7"/><stop offset="0.611111" stop-color="#487FD7"/><stop offset="0.616667" stop-color="#497DD7"/><stop offset="0.622222" stop-color="#497CD7"/><stop offset="0.627778" stop-color="#497BD7"/><stop offset="0.633333" stop-color="#4A7AD6"/><stop offset="0.638889" stop-color="#4A78D6"/><stop offset="0.644444" stop-color="#4A77D6"/><stop offset="0.65" stop-color="#4A76D6"/><stop offset="0.655556" stop-color="#4B74D6"/><stop offset="0.661111" stop-color="#4B73D6"/><stop offset="0.666667" stop-color="#4B72D5"/><stop offset="0.672222" stop-color="#4B71D5"/><stop offset="0.677778" stop-color="#4B6FD5"/><stop offset="0.683333" stop-color="#4C6ED5"/><stop offset="0.688889" stop-color="#4C6DD5"/><stop offset="0.694444" stop-color="#4C6BD4"/><stop offset="0.7" stop-color="#4C6AD4"/><stop offset="0.705556" stop-color="#4D68D4"/><stop offset="0.711111" stop-color="#4D67D4"/><stop offset="0.716667" stop-color="#4D66D4"/><stop offset="0.722222" stop-color="#4D64D3"/><stop offset="0.727778" stop-color="#4D63D3"/><stop offset="0.733333" stop-color="#4E61D3"/><stop offset="0.738889" stop-color="#4E60D3"/><stop offset="0.744444" stop-color="#4E5ED3"/><stop offset="0.75" stop-color="#4E5DD2"/><stop offset="0.755556" stop-color="#4E5BD2"/><stop offset="0.761111" stop-color="#4E5AD2"/><stop offset="0.766667" stop-color="#4F59D2"/><stop offset="0.772222" stop-color="#4F57D1"/><stop offset="0.777778" stop-color="#4F56D1"/><stop offset="0.783333" stop-color="#4F54D1"/><stop offset="0.788889" stop-color="#4F52D1"/><stop offset="0.794444" stop-color="#4F51D1"/><stop offset="0.8" stop-color="#504FD0"/><stop offset="0.805556" stop-color="#504ED0"/><stop offset="0.811111" stop-color="#504CD0"/><stop offset="0.816667" stop-color="#504BD0"/><stop offset="0.822222" stop-color="#5049CF"/><stop offset="0.827778" stop-color="#5048CF"/><stop offset="0.833333" stop-color="#5046CF"/><stop offset="0.838889" stop-color="#5144CF"/><stop offset="0.844444" stop-color="#5143CF"/><stop offset="0.85" stop-color="#5141CE"/><stop offset="0.855556" stop-color="#513FCE"/><stop offset="0.861111" stop-color="#513ECE"/><stop offset="0.866667" stop-color="#513CCE"/><stop offset="0.872222" stop-color="#513ACD"/><stop offset="0.877778" stop-color="#5139CD"/><stop offset="0.883333" stop-color="#5137CD"/><stop offset="0.888889" stop-color="#5235CD"/><stop offset="0.894444" stop-color="#5234CC"/><stop offset="0.9" stop-color="#5232CC"/><stop offset="0.905556" stop-color="#5230CC"/><stop offset="0.911111" stop-color="#522ECC"/><stop offset="0.916667" stop-color="#522DCB"/><stop offset="0.922222" stop-color="#522BCB"/><stop offset="0.927778" stop-color="#5229CB"/><stop offset="0.933333" stop-color="#5227CB"/><stop offset="0.938889" stop-color="#5226CA"/><stop offset="0.944444" stop-color="#5224CA"/><stop offset="0.95" stop-color="#5222CA"/><stop offset="0.955556" stop-color="#5220CA"/><stop offset="0.961111" stop-color="#521EC9"/><stop offset="0.966667" stop-color="#521DC9"/><stop offset="0.972222" stop-color="#521BC9"/><stop offset="0.977778" stop-color="#5219C9"/><stop offset="0.983333" stop-color="#5217C8"/><stop offset="0.988889" stop-color="#5215C8"/><stop offset="0.994444" stop-color="#5213C8"/><stop offset="1" stop-color="#5312C8"/></linearGradient></defs><g clip-path="url(#clip1)" transform="translate(-1375 -433)"><g clip-path="url(#clip2)" filter="url(#fx0)" transform="translate(1374 432)"><g clip-path="url(#clip3)"><path d="M531.992 815.224C531.992 736.093 536.42 659.856 544.608 587.937L1087.95 587.937C1096.13 659.856 1100.56 736.093 1100.56 815.224 1100.56 894.353 1096.13 970.589 1087.95 1042.51L544.608 1042.51C536.42 970.589 531.992 894.353 531.992 815.224ZM430.206 1042.51C422.402 969.754 418.277 893.557 418.277 815.224 418.277 736.889 422.402 660.692 430.206 587.937L53.2409 587.937C31.794 659.953 20.2771 736.246 20.2771 815.224 20.2771 894.205 31.794 970.493 53.2409 1042.51L430.206 1042.51ZM96.8779 1156.15 445.829 1156.15C463.699 1261.82 489.712 1357.69 522.263 1439.01 543.226 1491.38 567.363 1538.89 594.603 1579.47 374.516 1515.82 193.681 1359.8 96.8779 1156.15ZM561.267 1156.15 1071.29 1156.15C1054.82 1247.03 1032.07 1328.44 1004.71 1396.8 975.432 1469.96 941.983 1525.35 907.754 1561.52 873.64 1597.57 842.71 1610.72 816.278 1610.72 789.845 1610.72 758.914 1597.57 724.8 1561.52 690.572 1525.35 657.122 1469.96 627.842 1396.8 600.482 1328.44 577.733 1247.03 561.267 1156.15ZM1186.73 1156.15C1168.86 1261.82 1142.84 1357.69 1110.29 1439.01 1089.33 1491.38 1065.19 1538.89 1037.95 1579.47 1258.04 1515.82 1438.88 1359.8 1535.67 1156.15L1186.73 1156.15ZM1579.31 1042.51C1600.76 970.493 1612.28 894.205 1612.28 815.224 1612.28 736.246 1600.76 659.953 1579.31 587.937L1202.35 587.937C1210.16 660.692 1214.28 736.889 1214.28 815.224 1214.28 893.557 1210.16 969.754 1202.35 1042.51L1579.31 1042.51ZM1004.71 233.644C1032.07 302.001 1054.82 383.423 1071.29 474.295L561.267 474.295C577.733 383.423 600.482 302.001 627.842 233.644 657.122 160.485 690.572 105.095 724.8 68.9232 758.794 32.9971 789.634 19.8132 816.005 19.7228L816.278 19.7228 816.432 19.7228C842.83 19.7739 873.709 32.9421 907.754 68.9232 941.983 105.095 975.432 160.485 1004.71 233.644ZM1186.73 474.295 1535.67 474.295C1438.88 270.647 1258.04 114.626 1037.95 50.9798 1065.19 91.5553 1089.33 139.066 1110.29 191.438 1142.84 272.758 1168.86 368.628 1186.73 474.295ZM96.8779 474.295 445.829 474.295C463.699 368.628 489.712 272.758 522.263 191.438 543.226 139.066 567.363 91.5553 594.603 50.9798 374.516 114.626 193.681 270.647 96.8779 474.295Z" fill="#FF0000" fill-rule="evenodd"/></g></g><path d="M1915.72 1237.5C1915.72 1158.37 1920.14 1082.13 1928.33 1010.21L2471.67 1010.21C2479.86 1082.13 2484.29 1158.37 2484.29 1237.5 2484.29 1316.63 2479.86 1392.87 2471.67 1464.79L1928.33 1464.79C1920.14 1392.87 1915.72 1316.63 1915.72 1237.5ZM1813.93 1464.79C1806.12 1392.03 1802 1315.83 1802 1237.5 1802 1159.17 1806.12 1082.97 1813.93 1010.21L1436.96 1010.21C1415.52 1082.23 1404 1158.52 1404 1237.5 1404 1316.48 1415.52 1392.77 1436.96 1464.79L1813.93 1464.79ZM1480.6 1578.43 1829.55 1578.43C1847.42 1684.09 1873.43 1779.97 1905.99 1861.29 1926.95 1913.66 1951.09 1961.17 1978.33 2001.74 1758.24 1938.1 1577.4 1782.08 1480.6 1578.43ZM1944.99 1578.43 2455.01 1578.43C2438.54 1669.3 2415.8 1750.72 2388.44 1819.08 2359.15 1892.24 2325.71 1947.63 2291.48 1983.8 2257.36 2019.85 2226.43 2033 2200 2033 2173.57 2033 2142.64 2019.85 2108.52 1983.8 2074.29 1947.63 2040.85 1892.24 2011.56 1819.08 1984.2 1750.72 1961.46 1669.3 1944.99 1578.43ZM2570.45 1578.43C2552.58 1684.09 2526.57 1779.97 2494.01 1861.29 2473.05 1913.66 2448.91 1961.17 2421.67 2001.74 2641.76 1938.1 2822.6 1782.08 2919.4 1578.43L2570.45 1578.43ZM2963.03 1464.79C2984.48 1392.77 2996 1316.48 2996 1237.5 2996 1158.52 2984.48 1082.23 2963.03 1010.21L2586.07 1010.21C2593.88 1082.97 2598 1159.17 2598 1237.5 2598 1315.83 2593.88 1392.03 2586.07 1464.79L2963.03 1464.79ZM2388.44 655.922C2415.8 724.278 2438.54 805.7 2455.01 896.573L1944.99 896.573C1961.46 805.7 1984.2 724.278 2011.56 655.922 2040.85 582.763 2074.29 527.372 2108.52 491.2 2142.52 455.274 2173.36 442.09 2199.73 442L2200 442 2200.15 442C2226.55 442.051 2257.43 455.219 2291.48 491.2 2325.71 527.372 2359.15 582.763 2388.44 655.922ZM2570.45 896.573 2919.4 896.573C2822.6 692.925 2641.76 536.903 2421.67 473.257 2448.91 513.833 2473.05 561.343 2494.01 613.715 2526.57 695.035 2552.58 790.905 2570.45 896.573ZM1480.6 896.573 1829.55 896.573C1847.42 790.905 1873.43 695.035 1905.99 613.715 1926.95 561.343 1951.09 513.833 1978.33 473.257 1758.24 536.903 1577.4 692.925 1480.6 896.573Z" fill="url(#fill4)" fill-rule="evenodd"/><path d="M1882 1630.84C1882 1588.95 1915.95 1555 1957.84 1555L2896.17 1555C2938.05 1555 2972 1588.95 2972 1630.84L2972 1934.16C2972 1976.05 2938.05 2010 2896.17 2010L1957.84 2010C1915.95 2010 1882 1976.05 1882 1934.16Z" fill="#064A8C" fill-rule="evenodd"/><text fill="#FFFFFF" font-family="Bahnschrift SemiBold,Bahnschrift SemiBold_MSFontService,sans-serif" font-weight="600" font-size="367" transform="matrix(1 0 0 1 2083.68 1924)">PRE</text></g></svg>